<?xml version="1.0" encoding="UTF-8"?>
<svg width="220px" height="41px" viewBox="0 0 220 41" version="1.1" xmlns="http://www.w3.org/2000/svg" xmlns:xlink="http://www.w3.org/1999/xlink">
    <!-- Generator: Sketch 51 (57462) - http://www.bohemiancoding.com/sketch -->
    <title>Group 3 Copy 2</title>
    <desc>Created with Sketch.</desc>
    <defs>
        <linearGradient x1="17.9808392%" y1="31.3113292%" x2="91.3497935%" y2="68.5102587%" id="linearGradient-1">
            <stop stop-color="#92C767" offset="0%"></stop>
            <stop stop-color="#4EB133" offset="100%"></stop>
        </linearGradient>
        <linearGradient x1="16.1454343%" y1="13.9479905%" x2="68.5104216%" y2="86.0520095%" id="linearGradient-2">
            <stop stop-color="#EA6143" offset="0%"></stop>
            <stop stop-color="#BC003B" offset="100%"></stop>
        </linearGradient>
        <linearGradient x1="87.7454831%" y1="-3.93204967%" x2="10.4477612%" y2="92.5547088%" id="linearGradient-3">
            <stop stop-color="#48BEE5" offset="0%"></stop>
            <stop stop-color="#2D64AE" offset="100%"></stop>
        </linearGradient>
        <linearGradient x1="49.939976%" y1="12.992126%" x2="49.939976%" y2="94.488189%" id="linearGradient-4">
            <stop stop-color="#AB1C87" offset="0%"></stop>
            <stop stop-color="#90529C" offset="100%"></stop>
        </linearGradient>
        <linearGradient x1="92.800576%" y1="50.913242%" x2="8.92728582%" y2="50.913242%" id="linearGradient-5">
            <stop stop-color="#F5D44F" offset="0%"></stop>
            <stop stop-color="#EEA800" offset="100%"></stop>
        </linearGradient>
    </defs>
    <g id="Page-1" stroke="none" stroke-width="1" fill="none" fill-rule="evenodd">
        <g id="Group-3-Copy-2" fill-rule="nonzero">
            <g id="Group-14">
                <path d="M13.574,24.096265 C13.0368386,22.3216029 12.0161538,20.7382769 10.6303591,19.5299747 L9.31135066,18.5479768 L8.70010283,18.1224443 L8.20145328,17.7623784 L8.05668405,17.647812 L7.46152169,17.1731797 L7.17198324,16.9604135 L6.7698465,16.6658141 C5.02229807,15.5019504 3.44623974,14.0912173 2.08897492,12.4759563 L0.480427986,17.3859459 L0.287402354,18.0078779 L0.0139493745,18.8589428 C-0.00464979152,18.9727277 -0.00464979152,19.0888571 0.0139493745,19.2026421 C0.351744231,20.2992064 2.28200055,22.050436 6.44813712,25.0291631 L6.67333369,25.209196 C6.82692205,25.2994744 6.97226991,25.403544 7.10764136,25.520162 L7.5580345,25.831128 C9.6244456,27.18923 11.4880137,28.8428422 13.091436,30.7411177 L13.091436,30.8229508 C14.0277579,28.7090083 14.1987017,26.3261425 13.574,24.096265 Z" id="Shape" fill="url(#linearGradient-1)"></path>
                <path d="M12.4759563,31.804674 C12.2133407,30.6613615 10.3969164,28.8663609 7.02668334,26.4196721 C7.02668334,26.5054206 7.02668334,26.5740193 7.02668334,26.6597678 C5.27044176,32.1991168 4.77803758,35.0802644 5.38533607,35.9377487 C5.49289901,35.9675628 5.60604258,35.9675628 5.71360553,35.9377487 C6.97744292,36.0234972 9.75131981,33.999834 12.4759563,31.804674 Z" id="Shape" fill="#B7BABB"></path>
                <path d="M7.95332194,16.879235 C8.99197936,16.4119059 10.1681062,12.4136457 11.0081967,9.54043716 L10.1986549,9.54043716 C5.12756276,9.54043716 2.65311419,9.95584081 2.21015734,10.8731905 C1.99631611,12.1540185 5.86073271,15.2349289 7.95332194,16.879235 Z" id="Shape" fill="#B7BABB"></path>
                <path d="M21.2825137,7.46038917 C22.5987238,9.27722703 24.7395298,10.3303612 26.9979694,10.2720134 C27.7961845,10.2612043 28.5892007,10.1429686 29.3551913,9.92056034 L28.935412,8.64254934 L28.6125049,7.98756871 C27.3854579,4.185486 25.9485213,0.303527611 24.705329,0 C23.5428634,0.255602199 22.1543628,4.71266554 21.2825137,7.46038917 Z" id="Shape" fill="#B7BABB"></path>
                <path d="M28.3372033,32.2907104 L28.2437923,32.2907104 C27.0294495,32.2907104 24.631901,33.8860714 22.0163934,35.9600407 L22.2654894,36.1355304 C26.1109082,39.0231338 28.3994773,40.363237 29.4892721,40.363237 C29.6248578,40.3659135 29.758853,40.3329592 29.8784845,40.2675154 C30.6413409,39.421974 29.1467652,34.8273344 28.3372033,32.2907104 Z" id="Shape" fill="#B7BABB"></path>
                <path d="M35.3158756,26.1842986 C33.8778645,22.2980321 33.5307584,21.1483449 32.9522482,19.25379 C32.853075,18.9137417 32.8034885,18.7356212 32.6712576,18.3469945 C31.1893178,19.5411217 30.0500654,21.0924835 29.365485,22.8485865 C28.863219,24.028042 28.610192,25.2949953 28.6216862,26.5729252 L28.6216862,26.9129735 C28.6216862,26.9129735 28.6216862,26.9129735 28.6216862,26.9129735 C28.654825,28.4531726 29.0150928,29.9697218 29.6795334,31.3659872 C29.6795334,31.5279149 29.8117643,31.6898427 29.8613509,31.8517705 L30.1588704,32.6776021 C30.9671886,34.6664024 31.4685576,36.7620805 31.6464681,38.8956284 L34.8695963,36.531483 L35.8117414,35.8351936 L36.3737228,35.4141814 L37.1175216,34.863627 C38.0431379,34.0539881 36.7373578,30.0219867 35.3158756,26.1842986 Z" id="Shape" fill="url(#linearGradient-2)"></path>
                <path d="M21.6566598,28.6213647 C19.8276495,28.6240453 18.0367664,29.155788 16.491253,30.1550591 L15.1837594,31.1610307 L14.5703673,31.6227881 L14.1022523,32.0020889 L13.9569753,32.1175282 L13.4081508,32.546303 L13.1175967,32.7771817 L12.7140493,33.0905172 C11.0902198,34.4531633 9.27909922,35.5644713 7.33879781,36.3887847 L11.4872651,39.4231908 L12.0360896,39.8189829 L12.7624749,40.3467057 C12.8744195,40.3689487 12.9895102,40.3689487 13.1014548,40.3467057 C14.2475294,40.3467057 16.4589692,38.9779247 20.5105851,35.7456225 L20.7365717,35.5642178 L21.156261,35.2343911 L21.5759503,34.9045643 C23.4469427,33.273189 25.5404405,31.9287891 27.7905803,30.9136606 L27.8874317,30.9136606 C26.1386719,29.4253174 23.9327066,28.6137446 21.6566598,28.6213647 Z" id="Shape" fill="url(#linearGradient-3)"></path>
                <path d="M17.7549571,0.066453681 L16.1691424,0.066453681 C15.2652281,0.215974463 14.1234415,2.80766802 12.5852013,8.37316381 L12.4900524,8.68881879 L12.3473291,9.20383482 L12.2363221,9.83514479 C11.6758292,12.3101484 10.7672723,14.6841211 9.54043716,16.879235 L10.0161816,16.879235 L10.4126352,16.879235 C14.3708334,16.7912137 17.8633853,14.1446378 19.1821903,10.2338669 C19.1821903,9.96805215 19.3249136,9.70223743 19.4042043,9.4364227 C19.483495,9.17060798 19.5786439,8.80511273 19.6737928,8.48945775 C19.6737928,8.25686986 19.7847998,8.05750882 19.8482324,7.84153436 C19.8482324,7.84153436 19.8482324,7.67540015 19.8482324,7.60894647 L20.1653953,6.87795598 C20.1653953,6.66198152 20.2764024,6.46262048 20.339835,6.24664601 C20.3467241,6.17483541 20.3467241,6.10248215 20.339835,6.03067155 C20.8545267,3.90673705 21.6668299,1.87443702 22.7502732,0 L17.7549571,0.066453681 Z" id="Shape" fill="url(#linearGradient-4)"></path>
                <path d="M38.2156405,9.62421339 C37.6925728,9.62421339 37.1695051,9.54043716 36.6305869,9.54043716 C34.7479831,9.55021968 32.8776049,9.86091233 31.0828996,10.4619757 L30.4488782,10.6462834 L29.9892127,10.8138359 L29.8782589,10.8138359 L29.4978461,10.9311226 C28.6709983,11.2055617 27.8122173,11.3578011 26.9459099,11.3835142 C25.8568689,11.3927315 24.7777178,11.1645822 23.7758029,10.7133044 C23.2762588,10.4824417 22.7985962,10.201927 22.3492547,9.87554208 L22.0163934,9.62421339 C22.0163934,9.62421339 22.0163934,9.62421339 22.0163934,9.62421339 C22.663828,13.4496807 25.6338425,16.3566583 29.2917891,16.745193 C29.5715805,16.7623345 29.8520761,16.7623345 30.1318675,16.745193 C30.6636668,16.7512732 31.1946946,16.7007528 31.716921,16.5943958 L32.6679531,16.3430671 C33.5758989,16.1159113 34.5105253,16.0312279 35.4417968,16.0917384 C36.8405611,16.2208446 38.2252843,16.4844336 39.5787865,16.879235 L44.0327869,10.7970806 C42.1437212,10.1673295 40.1913652,9.77369071 38.2156405,9.62421339 Z" id="Shape" fill="url(#linearGradient-5)"></path>
            </g>
            <g id="Group-13" transform="translate(51.371585, 0.000000)" fill="#121212">
                <path d="M38.1015264,17.7566999 L40.2035107,18.6341649 L34.5264981,27.4726301 C34.5264981,27.4726301 33.9306601,28.190556 34.5264981,28.1586481 C35.6801202,28.0883265 36.8291958,27.9605244 37.969118,27.7757543 L37.1746673,25.7974697 L39.0283856,25.2550368 L41.0972678,30.1369328 L38.9952835,30.8229508 L38.548405,29.8019007 L31.58041,30.5198266 C31.58041,30.5198266 29.8094469,30.6953196 30.6204487,29.3392373 L34.791315,23.2129366 L31.4811036,23.5479686 C31.4811036,23.5479686 29.7266916,23.7234616 30.1570191,22.447149 L34.2947833,13.9437158 L36.6615845,14.5499644 L33.4672305,20.6922191 C33.4672305,20.6922191 33.1527604,21.2984676 33.8810069,21.2506058 C34.6092534,21.2027441 36.1153996,20.9634355 36.1153996,20.9634355" id="Shape"></path>
                <path d="M39.6295082,16.879235 L39.6295082,14.6775956 L52.9598083,14.6775956 C52.9598083,14.6775956 54.3071038,14.6775956 54.3071038,15.6840593 C54.3071038,16.942139 52.9598083,16.832057 52.9598083,16.832057 L39.6295082,16.879235 Z" id="Shape"></path>
                <polygon id="Shape" points="41.7791403 24.9519126 40.363388 19.7484268 42.4292307 19.0808743 44.0327869 24.2843601"></polygon>
                <polygon id="Shape" points="46.053838 24.2180328 45.5005464 19.3998482 47.7598203 19.0808743 48.4360656 23.9662113"></polygon>
                <polygon id="Shape" points="54.3071038 19.1606439 51.7471152 24.9519126 49.1699454 23.8670468 51.8673831 18.3469945"></polygon>
                <g id="Group-12" transform="translate(0.000000, 13.760246)">
                    <path d="M4.02412882,11.5212114 L2.58664137,20.044968 L0.733879781,18.8015793 C0.733879781,18.8015793 2.05956265,11.8156982 2.10747889,11.3248869 L4.02412882,11.5212114 Z M10.7164315,9.54160576 C10.5360274,9.52136683 10.3562474,9.58488172 10.2263829,9.71473611 C10.0965185,9.84459049 10.0301976,10.0271574 10.045604,10.2123812 L10.045604,22.5808265 C10.098668,23.2653797 9.90552355,23.9461819 9.50255318,24.4949906 C8.95078617,24.9782996 8.22706174,25.2036606 7.50604285,25.1166849 L6.02063916,25.1166849 L5.57342084,22.6299076 L7.04285245,22.7444302 C7.63381951,22.7444302 7.921317,22.4499434 7.921317,21.8773302 L7.921317,9.95061519 C7.93164536,9.81454103 7.88219993,9.68083646 7.78644943,9.585922 C7.69069893,9.49100754 7.5586171,9.44476985 7.42618243,9.45980387 C7.29755931,9.44914542 7.17103559,9.49804716 7.08134762,9.59308339 C6.99165966,9.68811962 6.94823368,9.81930201 6.96299203,9.95061519 C6.96299203,10.5559491 6.96299203,10.506868 6.96299203,10.8504359 L6.96299203,11.4066888 C7.04250402,14.1861314 6.76323922,16.9641554 6.13244373,19.6686793 C5.46065471,21.8497439 4.37509363,23.8734965 2.93802719,25.6238566 L1.0852656,24.1514227 C2.45055931,22.6605572 3.47609518,20.878115 4.08801715,18.9324623 C4.72138301,16.1286788 4.99521568,13.2522838 4.90259337,10.375985 C4.90259337,9.39436236 4.16787756,9.45980387 4.16787756,9.45980387 L1.22901435,9.45980387 L1.22901435,7.13663029 L5.58939292,7.13663029 C5.58939292,7.13663029 6.24424831,7.13663029 6.24424831,6.41677369 L6.24424831,5.68055672 C6.24853176,5.48528613 6.17688548,5.29627511 6.04508026,5.15512879 C5.91327503,5.01398248 5.73211483,4.93227052 5.54147667,4.92797936 L2.02761848,4.92797936 L2.02761848,2.65388692 L5.71716958,2.65388692 C5.89216925,2.6584272 6.06132209,2.5892154 6.18510522,2.46242299 C6.30888836,2.33563058 6.3764575,2.1623655 6.37202497,1.98311145 L6.37202497,0.183469945 L8.70394905,0.183469945 L8.70394905,2.09763409 C8.70394905,2.09763409 8.62408864,2.65388692 9.26297194,2.65388692 L11.3553148,2.65388692 C11.3553148,2.65388692 12.6490535,2.65388692 12.6490535,3.83183408 C12.6490535,5.00978125 11.3553148,4.92797936 11.3553148,4.92797936 L9.47060902,4.92797936 C9.47060902,4.92797936 8.79978155,4.92797936 8.7518653,5.68055672 L8.7518653,6.56401709 C8.7518653,6.56401709 8.7518653,7.13663029 9.42269277,7.13663029 L11.594896,7.13663029 C11.9060185,7.10412785 12.2159718,7.20855189 12.4475157,7.42388 C12.6790597,7.63920812 12.8103882,7.94516135 12.8087743,8.26549633 C12.8087743,9.42708312 11.594896,9.45980387 11.594896,9.45980387 L10.7164315,9.54160576 Z M12.936551,16.0857567 L11.003929,16.6910906 L10.0935202,11.9302208 L11.8983656,11.4884907 L12.936551,16.0857567 Z M15.6038888,12.0611039 L14.4698709,20.8139057 L12.5212768,19.177868 L13.6073784,11.6684548 L15.6038888,12.0611039 Z M22.5517448,9.54160576 C22.3872859,9.52977387 22.2264846,9.59510866 22.1146607,9.71919636 C22.0028367,9.84328405 21.9520999,10.0126868 21.9767498,10.1796605 L21.9767498,22.9407548 C22.0273361,23.6199805 21.8342454,24.2947759 21.433699,24.8385585 C20.8747031,25.332992 20.1388096,25.5644689 19.4052445,25.4766132 L17.967757,25.4766132 L17.4726225,23.0225566 L18.9739982,23.1370793 C19.5649653,23.1370793 19.8524628,22.8425925 19.8524628,22.2699793 L19.8524628,9.99969632 C19.8524628,9.99969632 19.8524628,9.54160576 19.2614957,9.54160576 C18.6705287,9.54160576 18.7024728,9.99969632 18.7024728,9.99969632 L18.7024728,11.4884907 C18.7921746,14.2683062 18.5127702,17.0477191 17.8719245,19.7504812 C17.163577,21.9885815 16.0410624,24.0660049 14.5657034,25.8692623 L12.6330814,24.2659453 C14.0490108,22.7669026 15.1378547,20.9768227 15.8274979,19.0142642 C16.3630179,16.1006634 16.6462917,13.1443118 16.6740183,10.1796605 C16.6740183,9.31256047 15.9712467,9.44344349 15.9712467,9.44344349 L13.5594622,9.44344349 L13.5594622,7.13663029 L17.0413762,7.13663029 C17.0413762,7.13663029 17.7441479,7.13663029 17.7441479,6.49857558 L17.7441479,5.71327747 C17.7590933,5.49775599 17.6808571,5.28638924 17.5301728,5.13519167 C17.3794886,4.98399409 17.1715693,4.90823061 16.9615158,4.92797936 L14.0066805,4.92797936 L14.0066805,2.65388692 L17.201097,2.65388692 C17.3687933,2.67440372 17.5365558,2.616164 17.6575186,2.49543756 C17.7784813,2.37471112 17.8396764,2.20444056 17.8240083,2.03219258 L17.8240083,0.183469945 L20.2357928,0.183469945 L20.2357928,2.08127371 C20.2357928,2.08127371 20.2357928,2.65388692 20.7468994,2.65388692 L23.9413159,2.65388692 C24.2269367,2.64304917 24.5031996,2.75914838 24.6990883,2.9723399 C24.8949769,3.18553143 24.9913848,3.47502121 24.9635292,3.76639257 C25.0008722,4.06449135 24.9093309,4.36443727 24.7128805,4.5876726 C24.5164302,4.81090794 24.2346412,4.93519395 23.9413159,4.92797936 L20.9545365,4.92797936 C20.8055181,4.90111757 20.6528683,4.94793081 20.542778,5.0542537 C20.4326877,5.16057659 20.3780929,5.31391575 20.3955136,5.46787181 L20.3955136,6.53129633 C20.3955136,7.2020718 21.1142573,7.13663029 21.1142573,7.13663029 L24.5642272,7.13663029 C24.8659812,7.10644735 25.1652461,7.21503055 25.3811701,7.43304423 C25.5970941,7.6510579 25.7073949,7.95600414 25.682273,8.26549633 C25.6908542,8.57637966 25.577368,8.87780362 25.3672222,9.1022834 C25.1570764,9.32676318 24.8678249,9.45554772 24.5642272,9.45980387 L22.5517448,9.54160576 Z M23.3822931,21.910051 L22.6156331,12.3065095 L24.6600597,11.9629416 L25.6183846,21.3210774 L23.3822931,21.910051 Z" id="Shape"></path>
                    <polygon id="Shape" points="33.0245902 18.8199298 31.7787012 25.8692623 29.3551913 25.8692623 30.6352141 18.5304645"></polygon>
                    <polygon id="Shape" points="34.1048977 25.1353825 33.7584699 18.8056694 36.0922988 18.5304645 36.6939891 24.8601776"></polygon>
                    <polygon id="Shape" points="37.3741703 22.9337432 36.6939891 18.1964833 38.7703319 17.7965847 39.6295082 22.3800375"></polygon>
                    <path d="M44.6817425,15.1062228 L40.0082632,15.1062228 L40.0082632,12.7979241 L44.9105143,12.7979241 C45.0564084,12.7979894 45.1961039,12.7404617 45.2977156,12.6384715 C45.3993273,12.5364813 45.4541829,12.3987332 45.4497619,12.2566679 L45.4497619,10.4577869 L47.9008874,10.4577869 L47.9008874,12.3999416 C47.9008874,12.3999416 47.9008874,12.8456821 48.3094083,12.8456821 L53.0809327,12.8456821 C53.4023314,12.8181811 53.720426,12.9261296 53.9547266,13.1422123 C54.1890272,13.3582951 54.3170846,13.6618086 54.3064955,13.9759524 C54.3158537,14.293887 54.1891818,14.6013141 53.9567761,14.8247057 C53.7243704,15.0480973 53.407131,15.1673641 53.0809327,15.1539807 C53.0809327,15.1539807 49.3715627,15.1539807 48.6689067,15.1539807 C47.9662508,15.1539807 48.3584308,15.6793177 48.3584308,15.6793177 L54.2411321,24.9602702 L50.9729647,24.9602702 L47.9172282,19.292999 L47.9172282,25.1353825 L45.4661027,25.1353825 L45.4661027,19.2611604 L41.0704176,25.0398667 L38.1617486,25.0398667 L44.8124692,15.8385107 C45.0575818,15.488286 45.3517169,15.1062228 44.6817425,15.1062228 Z" id="Shape"></path>
                    <path d="M61.3431585,3.35334508 C61.3431585,3.35334508 62.5835053,3.35334508 61.9069525,2.24225483 L61.0854241,0.510261197 L63.5661177,0.183469945 L64.3071042,1.8174262 C64.3071042,1.8174262 64.9192234,3.30432639 65.9179442,3.30432639 L67.0777491,3.30432639 C67.0777491,3.30432639 68.4147463,3.30432639 68.4147463,4.46443534 C68.4213575,4.81624877 68.2785588,5.15396981 68.0227127,5.39160038 C67.7668666,5.62923094 67.4226624,5.74383958 67.0777491,5.70624209 L57.9765027,5.70624209 L57.9765027,3.35334508 L61.3431585,3.35334508 Z M58.749706,7.45457529 L66.1595702,7.45457529 C66.1595702,7.45457529 67.4965675,7.45457529 67.4965675,8.61468423 C67.4965675,9.77479317 66.1595702,9.74211404 66.1595702,9.74211404 L58.749706,9.74211404 L58.749706,7.45457529 Z M58.749706,11.5231264 L66.1756787,11.5231264 C66.1756787,11.5231264 67.5448927,11.5231264 67.5448927,12.6995749 C67.5448927,13.8760234 66.1756787,13.8106651 66.1756787,13.8106651 L58.749706,13.8106651 L58.749706,11.5231264 Z M58.749706,15.8857896 L66.0145946,15.8857896 C66.0145946,15.8857896 67.4643507,15.7387335 67.4643507,17.5197458 L67.4643507,25.6895271 L65.0803074,25.6895271 L65.0803074,24.235306 L61.3109417,24.235306 L61.3109417,25.8692623 L58.830248,25.8692623 L58.749706,15.8857896 Z M64.9997654,18.1406492 L61.3109417,18.1406492 L61.3109417,22.0458047 L65.0803074,22.0458047 L64.9997654,18.1406492 Z M79.9322528,2.6017252 L79.9322528,6.93170928 C79.8758148,7.35293507 79.9670358,7.78088655 80.1899872,8.14083691 C80.4793907,8.35064393 80.8353549,8.4438239 81.188708,8.40226991 L81.6719601,8.40226991 C81.6719601,8.40226991 82.9284153,8.40226991 82.9284153,9.52969973 C82.9284153,10.6571295 81.6719601,10.7551669 81.6719601,10.7551669 L80.3671796,10.7551669 C79.5699019,10.8194901 78.7775399,10.5807 78.1442203,10.0852449 C77.5675657,9.34090171 77.3067397,8.39433257 77.4193423,7.45457529 L77.4193423,3.27164727 L73.6338681,3.27164727 L73.6338681,4.17032321 C73.6748671,5.44701467 73.44411,6.71767239 72.9573153,7.89574348 C72.1291009,9.3404282 71.0354604,10.6106165 69.7356352,11.6375033 L67.8026271,9.82381186 C68.9191532,9.05301022 69.8497243,8.03647546 70.5249468,6.85001147 C71.0108431,5.42297758 71.2134076,3.91248543 71.1209576,2.40565045 L71.1209576,0.935089823 L78.4663883,0.935089823 C78.4663883,0.935089823 80.0127948,0.755354635 80.0127948,2.6017252 L79.9322528,2.6017252 Z M81.3820088,14.2191542 C81.5296912,16.1803555 81.1861387,18.1475962 80.383288,19.9380011 C79.7876412,21.0452374 78.9700512,22.0137082 77.9831363,22.781085 C79.112112,23.1261679 80.2834968,23.3076976 81.4625508,23.3202905 C81.7865232,23.2928078 82.1069938,23.4045125 82.3458808,23.628188 C82.5847679,23.8518636 82.7201371,24.1669723 82.7190061,24.496739 C82.7190061,25.7222062 81.3820088,25.6731875 81.3820088,25.6731875 C79.3423835,25.7190798 77.3196698,25.2886056 75.4702258,24.4150412 C73.5533261,25.6405084 68.3825295,25.5914897 68.3825295,25.5914897 L68.3825295,23.0915367 C69.9244559,23.2459597 71.4812285,23.079152 72.9573153,22.6013498 C72.2276112,21.7506684 71.5953455,20.8188084 71.0726324,19.8236241 C70.50201,18.4931939 70.1327229,17.082986 69.9772612,15.6406961 L72.4096297,15.6406961 C72.4339145,16.5247807 72.5637279,17.4026226 72.7962313,18.2550261 C73.2932981,19.7001747 74.2965209,20.9096881 75.6152014,21.6536552 C76.6477358,21.029823 77.4982899,20.1388684 78.0797867,19.0720043 C78.5694101,17.6236042 78.7612867,16.0888067 78.6435807,14.562285 L68.9785404,14.562285 L68.9785404,12.2257276 L79.0785076,12.2257276 C79.0785076,12.2257276 81.4625508,11.9152759 81.4625508,14.2191542 L81.3820088,14.2191542 Z" id="Shape"></path>
                    <path d="M97.8605736,4.62783096 C97.8605736,5.75526078 96.6704309,5.82061903 96.6704309,5.82061903 L85.8639344,5.82061903 L85.8639344,3.41870333 L89.6723913,3.41870333 C89.6723913,3.41870333 90.830797,3.50040115 90.4499513,2.73244171 C90.0691056,1.96448226 89.3708885,0.510261197 89.3708885,0.510261197 L91.9892026,0.183469945 L93.1317397,2.68342302 C93.3037226,3.1693381 93.7747261,3.47245263 94.2742767,3.41870333 L96.6704309,3.41870333 C96.9872017,3.40496661 97.2952726,3.52738197 97.5209615,3.75667101 C97.7466504,3.98596005 97.8696614,4.30150311 97.8605736,4.62783096 Z M86.7525744,7.60163135 L95.8928709,7.60163135 C96.1958014,7.58174163 96.4922113,7.69816036 96.705323,7.92073213 C96.9184346,8.14330389 97.027282,8.45013204 97.0036708,8.76174029 C97.037055,9.06591928 96.9305368,9.36869608 96.7157017,9.58028981 C96.5008665,9.79188355 96.2023758,9.88800488 95.9087395,9.84015142 L86.7367058,9.84015142 L86.7525744,7.60163135 Z M86.7525744,11.7028616 L95.8293966,11.7028616 C95.8293966,11.7028616 97.0512766,11.7028616 97.0512766,12.7976122 C97.0512766,13.8923629 95.8293966,13.9087025 95.8293966,13.9087025 L86.7367058,13.9087025 L86.7525744,11.7028616 Z M86.7525744,16.0491852 L95.2739967,16.0491852 C95.7057623,16.0085074 96.1327496,16.1675416 96.4393293,16.4832208 C96.7459089,16.7989001 96.9003589,17.2385607 96.8608537,17.6831415 C96.8608537,19.2190603 96.8608537,25.5588106 96.8608537,25.5588106 L94.2742767,25.5588106 L94.2742767,24.3660225 L89.3867571,24.3660225 L89.3867571,25.8692623 L86.8160486,25.8692623 L86.7525744,16.0491852 Z M94.2108025,18.222347 L89.3867571,18.222347 L89.3867571,22.2255398 L94.2742767,22.2255398 L94.2108025,18.222347 Z M105.77899,0.248828196 L105.77899,7.24216097 C105.765044,7.49763753 105.857525,7.7471215 106.033244,7.92805587 C106.208962,8.10899024 106.451255,8.20421596 106.699367,8.1898556 L109.587447,8.1898556 C109.919495,8.1478679 110.251966,8.26449071 110.490065,8.5064722 C110.728163,8.74845369 110.845761,9.08923898 110.809327,9.43166236 C110.837507,9.77631537 110.71901,10.116593 110.484555,10.3642768 C110.2501,10.6119606 109.922778,10.742659 109.587447,10.7224878 L106.66763,10.7224878 C105.699647,10.7224878 105.842465,11.7682198 105.842465,11.7682198 L105.842465,25.8692623 L103.208282,25.8692623 L103.208282,11.4904472 C103.228887,11.2424009 103.1339,10.9990128 102.952334,10.8346207 C102.770767,10.6702287 102.524187,10.6043588 102.287905,10.6571295 L98.1620765,10.6571295 L98.1620765,8.12449735 L102.367248,8.12449735 C102.598764,8.1378487 102.82358,8.04188248 102.978015,7.86378104 C103.13245,7.68567961 103.199686,7.44484073 103.160676,7.20948185 L103.160676,0.183469945 L105.77899,0.248828196 Z" id="Shape"></path>
                    <path d="M132.564869,15.2831051 C132.564869,15.2831051 134.189523,15.2010418 134.189523,16.3991651 C134.189523,17.5972883 132.564869,18.1717309 132.564869,18.1717309 L128.064575,19.6816944 L137.812504,19.6816944 C137.812504,19.6816944 139.437158,19.5339806 139.437158,20.7485165 C139.437158,21.9630523 137.812504,21.8974018 137.812504,21.8974018 L128.064575,21.8974018 L128.064575,23.5386664 C128.064575,25.0978679 127.236001,25.8692623 125.5951,25.8692623 L121.289764,25.8692623 L121.289764,23.7192056 L124.701539,23.8340941 C124.92556,23.8677896 125.152134,23.7922433 125.312287,23.6304532 C125.47244,23.468663 125.547221,23.2397728 125.513867,23.0134617 L125.513867,21.8974018 L113.751366,21.8974018 L113.751366,19.6488691 L125.513867,19.6488691 C125.584723,19.2982594 125.741083,18.97106 125.96877,18.6969356 C126.277455,18.3686827 126.521153,18.2866194 127.593425,18.0076044 L130.257859,17.3018606 L118.885275,17.3018606 L118.885275,15.2831051 L132.564869,15.2831051 Z M136.334068,14.1013945 L116.83821,14.1013945 L116.83821,18.1389056 L114.449968,18.1389056 L114.449968,13.0838104 C114.412118,12.7594316 114.530704,12.4364142 114.768773,12.2154118 C115.006841,11.9944093 115.335454,11.9022869 115.652212,11.9677504 L115.652212,1.44724375 L121.468476,0.659436705 L122.654474,2.67819227 L117.991715,3.40034873 L117.991715,4.87748695 L122.150831,4.87748695 L122.150831,6.68287811 L117.991715,6.68287811 L117.991715,8.16001632 L122.150831,8.16001632 L122.150831,10.1295339 L117.991715,10.1295339 L117.991715,11.9513378 L135.229303,11.9513378 L135.229303,10.1295339 L131.330131,10.1295339 L131.330131,8.16001632 L135.229303,8.16001632 L135.229303,6.68287811 L131.330131,6.68287811 L131.330131,4.87748695 L135.229303,4.87748695 L135.229303,3.38393608 L131.021447,3.38393608 L131.021447,1.13540346 L136.009137,1.13540346 C136.009137,1.13540346 137.633792,1.13540346 137.633792,2.92438197 L137.633792,11.9513378 C137.633792,11.9513378 138.933515,11.7872113 138.933515,13.3135874 L138.933515,18.1389056 L136.496533,18.1389056 L136.334068,14.1013945 Z M126.95981,4.25380637 L123.970445,6.10843547 L122.573242,4.30304431 L125.286415,2.89155668 L123.807979,1.48006905 L125.253922,0.183469945 L127.073535,1.92321051 L128.893149,0.626611411 L130.176626,1.9888611 L128.551971,3.12133373 L130.176626,4.6148846 L128.551971,5.76376988 L126.95981,4.25380637 Z M126.95981,9.88334424 L124.149157,11.5246089 L123.028145,9.80128101 L125.481374,8.38979338 L124.051678,6.9947184 L125.676332,5.86224576 L127.154768,7.50351045 L129.299313,6.05919752 L130.485311,7.58557368 L128.69819,8.73445896 L130.095393,10.2280098 L128.470739,11.5081963 L126.95981,9.88334424 Z" id="Shape"></path>
                    <path d="M150.463197,2.96473409 C150.463197,2.96473409 149.184895,8.18369444 148.990722,8.88719067 C148.881284,9.52579805 148.948481,10.1825613 149.184895,10.7849944 L150.802998,16.0039548 C151.082019,16.7181508 151.043004,17.5192953 150.695938,18.2023213 C150.348872,18.8853472 149.727445,19.3839549 148.990722,19.570517 L145.754514,19.7832019 L145.754514,17.1982623 L147.663877,17.1982623 C148.764188,17.1982623 148.408205,15.9548737 148.408205,15.9548737 L146.676834,11.0467605 C146.339101,10.3499306 146.269887,9.55097258 146.482661,8.80538878 C146.709196,8.0691718 147.890411,3.47190578 147.890411,3.47190578 L145.010187,3.47190578 L145.010187,25.8692623 L142.372678,25.8692623 L142.372678,1.14873221 L148.845093,1.14873221 C150.83536,1.14873221 150.463197,2.96473409 150.463197,2.96473409 Z M153.909758,15.1368548 L151.223705,15.1368548 L151.223705,12.7809605 L165.705734,12.7809605 C165.705734,12.7809605 167.081122,12.7809605 167.032579,14.0407095 C167.016384,14.3754842 166.865446,14.6889887 166.614834,14.9083874 C166.364221,15.127786 166.035751,15.2339795 165.705734,15.2022963 L162.809328,15.2022963 C162.809328,15.2022963 161.789923,15.2022963 161.789923,16.3966038 L161.789923,22.2536189 C161.756936,22.5170713 161.847514,22.7809863 162.034812,22.9671504 C162.22211,23.1533146 162.484642,23.2403714 162.744604,23.2025208 L166.984036,23.2025208 C167.278853,23.2019728 167.560779,23.3246742 167.763027,23.5415575 C167.965276,23.7584409 168.069853,24.0502103 168.051985,24.3477472 C168.08575,24.6490965 167.986538,24.9501872 167.780767,25.1708484 C167.574996,25.3915095 167.283551,25.509343 166.984036,25.4929736 L162.032639,25.4929736 C161.28522,25.5476745 160.545086,25.3138192 159.961466,24.8385585 C159.404907,24.1142978 159.154733,23.1966317 159.265681,22.2863397 L159.265681,16.2493604 C159.295127,15.9606891 159.196733,15.6736386 158.996924,15.465302 C158.797115,15.2569655 158.516372,15.1486975 158.230095,15.1695755 C157.307775,15.1695755 157.323957,16.2166397 157.307775,16.2984416 C157.288097,18.283693 156.728277,20.2251552 155.689672,21.910051 C154.347652,23.6976578 152.537038,25.0692518 150.463197,25.8692623 L148.845093,23.5788095 C150.665288,23.0769704 152.294443,22.0339264 153.521413,20.5848604 C154.348971,19.3234866 154.793335,17.8448137 154.799715,16.3311623 C154.799715,16.3311623 154.993887,15.1368548 153.845033,15.1368548 L153.909758,15.1368548 Z M164.459794,10.2287416 L153.294878,10.2287416 L153.294878,8.88719067 L151.207524,8.88719067 L151.207524,2.71932843 L156.854706,2.71932843 C157.53431,2.71932843 157.22687,2.14671522 157.22687,2.14671522 L156.369275,0.510677491 L158.990603,0.183469945 L159.945285,2.11399447 C160.131519,2.49556032 160.511629,2.74127474 160.932328,2.75204918 L165.349751,2.75204918 C165.68851,2.74459365 166.013694,2.88662381 166.240537,3.14111562 C166.467379,3.39560742 166.573402,3.73734306 166.530967,4.07723974 L166.530967,8.85446991 L164.459794,8.85446991 L164.459794,10.2287416 Z M164.022906,5.20610577 L153.699404,5.20610577 L153.699404,7.87284727 L164.006725,7.87284727 L164.022906,5.20610577 Z" id="Shape"></path>
                </g>
                <g id="Group-11" transform="translate(1.834699, 0.000000)">
                    <path d="M9.15161606,6.20516152 C9.22810302,7.38249309 9.1036934,8.56471189 8.78425687,9.69604067 C8.50624624,10.101163 8.04309765,10.3188808 7.57037435,10.2666651 L6.58010176,10.2666651 L6.46829679,9.54499301 L7.45856938,9.54499301 C7.88981712,9.54499301 8.17731561,9.37716229 8.28912058,9.07506698 C8.44920325,8.33777462 8.51898079,7.58201185 8.49675838,6.82613522 L2.31554079,6.82613522 C1.8289758,7.33077782 1.29367924,7.78075745 0.718326937,8.16878104 L0.366939891,7.5142412 C1.91719232,6.45966115 3.09981653,4.90485357 3.73706111,3.08350998 L1.06971398,3.08350998 L1.06971398,2.41218706 L2.66692783,2.41218706 C2.4228717,1.9950286 2.15064649,1.5968069 1.85234877,1.22058889 L2.41137362,0.834578218 C2.71288999,1.21619343 2.99544105,1.61392297 3.25789696,2.02617639 L2.79470494,2.41218706 L3.96067105,2.41218706 C4.12130634,1.86038436 4.25458665,1.30019559 4.35997451,0.733879781 L5.0627486,0.834578218 C4.95094364,1.38841962 4.82316653,1.92547795 4.69538942,2.42897014 L7.74606787,2.42897014 L7.34676441,4.25832507 L8.57661907,4.25832507 L8.20925989,6.20516152 L9.15161606,6.20516152 Z M2.93845419,7.76598729 C2.70633343,8.57043208 2.33249436,9.32191297 1.83637663,9.98135291 L1.21346323,9.56177609 C1.69151458,8.99244074 2.06031558,8.33136749 2.29956865,7.61493964 L2.93845419,7.76598729 Z M2.93845419,6.20516152 L7.57037435,6.20516152 L7.85787284,4.92964799 L3.6891447,4.92964799 C3.43993419,5.37009417 3.16800235,5.79590027 2.87456563,6.20516152 L2.93845419,6.20516152 Z M4.53566803,9.56177609 L3.86483822,9.56177609 C3.84640324,8.91376858 3.72772283,8.27323307 3.51345117,7.66528886 L4.12039243,7.66528886 C4.36969607,8.28838708 4.51035867,8.95350641 4.53566803,9.62890838 L4.53566803,9.56177609 Z M4.53566803,3.01637769 C4.37594665,3.43595451 4.2321974,3.82196518 4.07247602,4.19119278 L6.69190673,4.19119278 L6.99537736,3.01637769 L4.53566803,3.01637769 Z M6.1807983,9.12541619 L5.54191276,9.37716229 C5.38412054,8.80333744 5.18660409,8.2424058 4.95094364,7.698855 L5.52594062,7.53102428 C5.7823902,8.04426909 6.00130781,8.57727112 6.1807983,9.12541619 Z M7.68217932,8.72262245 L7.02732164,8.90723625 C6.87932703,8.40527006 6.69235724,7.91692022 6.46829679,7.44710891 L7.04329378,7.26249511 C7.30066126,7.74392749 7.51455693,8.24962745 7.68217932,8.77297166 L7.68217932,8.72262245 Z" id="Shape"></path>
                    <path d="M19.2063528,6.13220543 L19.2063528,6.70938491 C18.4725433,7.04356281 17.7227533,7.33819959 16.9599482,7.59212998 L16.9599482,7.93164732 L20.9155738,7.93164732 L20.9155738,8.55975439 L16.9599482,8.55975439 L16.9599482,9.49342707 C16.9599482,10.0196789 16.6832172,10.2743169 16.1460335,10.2743169 L15.0065528,10.2743169 L14.8437699,9.64620987 L15.9181373,9.64620987 C16.023441,9.65795316 16.1280174,9.61813527 16.201293,9.53839721 C16.2745685,9.45865915 16.3082676,9.34800642 16.2925381,9.23878906 L16.2925381,8.55975439 L12.1090164,8.55975439 L12.1090164,7.93164732 L16.2925381,7.93164732 L16.2925381,7.32051611 L18.0831505,6.70938491 L13.6554544,6.70938491 L13.6554544,6.13220543 L19.2063528,6.13220543 Z M13.5415063,3.65372888 L15.0553877,3.65372888 L15.0553877,4.19695661 L13.5903412,4.19695661 L13.5903412,4.90994302 L19.3203009,4.90994302 L19.3203009,4.19695661 L17.8715327,4.19695661 L17.8715327,3.65372888 L19.3528575,3.65372888 L19.3528575,2.99167007 L17.8552544,2.99167007 L17.8552544,2.4654182 L19.3691358,2.4654182 L19.3691358,1.70150419 L17.7413063,1.70150419 L17.7413063,1.09037298 L20.0691025,1.09037298 L20.0365459,4.90994302 L20.7527908,4.90994302 L20.7527908,6.6075297 L20.0691025,6.6075297 L20.0691025,5.47014663 L12.9554877,5.47014663 L12.9554877,6.57357797 L12.255521,6.57357797 L12.255521,4.87599129 L12.9880443,4.87599129 L12.7275916,1.22617992 C13.441558,1.13557044 14.1450324,0.970648019 14.8274916,0.733879781 L15.071666,1.32803512 C14.5379323,1.50424275 13.9942919,1.64597701 13.4438366,1.75243179 L13.4438366,2.43146646 L15.071666,2.43146646 L15.071666,2.95771834 L13.5415063,2.95771834 L13.5415063,3.65372888 Z M16.5529908,1.53174552 C16.7871605,1.34149973 16.9952806,1.1187495 17.171566,0.869686716 L17.5948017,1.14130059 C17.4048401,1.38843604 17.1981175,1.62103692 16.9762265,1.83731113 C17.213846,2.00467683 17.4421132,2.18604759 17.6599149,2.38053886 L17.3017924,2.73703207 L16.5855474,2.14287673 C16.2368814,2.38920851 15.8724843,2.61040986 15.4949017,2.80493553 L15.2181707,2.363563 C15.5526373,2.24437719 15.8702012,2.07879094 16.1623117,1.87126286 L15.348397,1.36198685 L15.6902412,1.02246952 C15.9995288,1.17525232 16.2925381,1.34501099 16.5529908,1.53174552 Z M16.5529908,3.43304261 C16.7809866,3.21790641 16.9931989,2.98525118 17.1878443,2.73703207 L17.6273583,3.0256218 C17.4365298,3.27732389 17.2240269,3.51029773 16.9925048,3.72163234 C17.2529575,3.90836688 17.4971319,4.11207728 17.7087497,4.29881182 L17.4157404,4.67228089 C17.1878443,4.46857048 16.9273916,4.26486008 16.6343823,4.04417381 C16.2960953,4.28847444 15.9363638,4.49878411 15.5600148,4.67228089 L15.2995621,4.21393248 C15.6150973,4.09327071 15.9156661,3.93369666 16.1948683,3.73860821 C15.9506939,3.56884954 15.6902412,3.41606674 15.4297885,3.26328394 L15.787911,2.90679074 L16.5529908,3.43304261 Z" id="Shape"></path>
                    <path d="M27.7225316,1.3252457 L24.8627774,1.3252457 L24.8627774,0.733879781 L28.4088726,0.733879781 L28.4088726,3.93045233 C28.4088726,4.39395535 28.1310679,4.63369829 27.5918,4.63369829 L26.7420444,4.63369829 L26.5786299,4.05831523 L27.4610683,4.05831523 C27.6244829,4.05831523 27.7225316,3.93045233 27.7225316,3.69070939 L27.7225316,3.17925778 C26.7628399,3.62446657 25.7748666,4.00884856 24.7647287,4.3300239 L24.5849727,3.70669225 C25.6563379,3.41261857 26.7048588,3.04407499 27.7225316,2.60387472 L27.7225316,1.3252457 Z M26.905459,2.20430315 L26.6930201,2.6997719 C26.0973035,2.49147496 25.4851877,2.33111325 24.8627774,2.22028602 L25.1242406,1.70883441 C25.7292085,1.83260154 26.3244409,1.99817308 26.905459,2.20430315 Z M32.2817969,9.54043716 L31.5954559,9.54043716 L31.5954559,9.092917 L26.4805812,9.092917 L26.4805812,9.54043716 L25.7452158,9.54043716 L25.7452158,5.22506422 L28.2944824,5.22506422 C28.4341149,4.97169319 28.5437656,4.70358181 28.6213115,4.42592108 L29.3076525,4.52181825 C29.2323888,4.76474364 29.1339054,5.00019813 29.0135063,5.22506422 L32.2817969,5.22506422 L32.2817969,9.54043716 Z M31.5627729,6.82335049 L31.5627729,5.81643014 L26.4805812,5.81643014 L26.4805812,6.82335049 L31.5627729,6.82335049 Z M31.5627729,8.42163677 L31.5627729,7.462665 L26.4805812,7.462665 L26.4805812,8.42163677 L31.5627729,8.42163677 Z M31.889602,1.3252457 L29.0135063,1.3252457 L29.0135063,0.733879781 L32.6576503,0.733879781 L32.6576503,4.02634951 C32.6576503,4.4578868 32.3798456,4.68164688 31.8242362,4.68164688 L31.0071636,4.68164688 L30.8600905,4.10626382 L31.6935046,4.10626382 C31.8732605,4.10626382 31.9713093,4.01036665 31.9713093,3.80258943 L31.9713093,3.16327492 C31.0564252,3.59945175 30.1118183,3.97327558 29.144238,4.28207531 L28.8827747,3.62677794 C29.9068358,3.34404194 30.9111945,2.99702689 31.889602,2.58789186 L31.889602,1.3252457 Z M31.0398465,2.23626888 L30.8274076,2.73173763 C30.2389778,2.50645358 29.6322015,2.33001909 29.0135063,2.20430315 L29.291311,1.70883441 C29.8930566,1.81789069 30.4798275,1.99488635 31.0398465,2.23626888 Z" id="Shape"></path>
                    <path d="M44.2607442,1.87805919 L43.8087262,2.41649656 L44.9309778,2.41649656 L44.9309778,3.14002178 L42.0162411,3.14002178 C42.0455231,4.17176566 42.1708483,5.19771528 42.390325,6.20238433 C42.4413684,6.44679957 42.503795,6.68828119 42.5773669,6.92590954 C43.0923878,6.02004451 43.4859667,5.04000352 43.7463789,4.01498251 L44.369852,4.30102736 C44.0300616,5.54095171 43.5034562,6.71201403 42.8111693,7.76721793 C42.9306908,8.07311251 43.0768224,8.36607827 43.2476005,8.64217866 C43.5749238,9.13013753 43.8243131,9.38253005 44.0269418,9.38253005 C44.2295706,9.38253005 44.3542652,8.82726651 44.5101335,7.69991326 L45.1336066,8.07008895 C44.8998041,9.44983472 44.5724808,10.1565338 44.1360496,10.1565338 C43.6023265,10.036171 43.1455834,9.66637624 42.8891034,9.1469637 C42.7031655,8.87812905 42.541371,8.59078658 42.4059118,8.28882914 C41.7546686,9.10646059 40.9461742,9.76104524 40.0367141,10.2070123 L39.6470434,9.58444406 C40.601329,9.11813187 41.4398778,8.41470974 42.0941753,7.53165158 C41.9463945,7.11938319 41.8214789,6.69798366 41.7200914,6.269689 C41.4901711,5.19727102 41.3493315,4.1048492 41.2992471,3.00541244 L37.9948397,3.00541244 L37.9948397,4.68802922 L40.3640374,4.68802922 C40.3805039,5.81509715 40.3022492,6.9414549 40.130235,8.05326279 C40.0206807,8.48927601 39.6441164,8.78364222 39.226199,8.75996184 L38.415684,8.75996184 L38.1974684,8.08691512 L39.1482649,8.08691512 C39.3664805,8.08691512 39.5067619,7.91865344 39.5535224,7.61578242 C39.6355528,6.87323457 39.6720016,6.12564307 39.6626302,5.3779021 L37.9948397,5.3779021 L37.9948397,5.78173013 C38.0324501,7.36738463 37.6367133,8.9298931 36.8570013,10.2743169 L36.3270492,9.76953191 C37.0064945,8.57226207 37.3427252,7.18479849 37.2934325,5.78173013 L37.2934325,2.41649656 L41.2680734,2.41649656 C41.2680734,1.91171153 41.2680734,1.37327416 41.2680734,0.818010621 L41.9694806,0.818010621 C41.9694806,1.39010033 41.9694806,1.9285377 41.9694806,2.5006274 L43.7775526,2.5006274 C43.4279276,2.06912155 43.035963,1.67984154 42.6085405,1.33962182 L43.0605585,0.733879781 C43.4910796,1.07633841 43.8927056,1.45922265 44.2607442,1.87805919 Z" id="Shape"></path>
                    <path d="M49.430428,6.76031251 C49.2481263,7.60931835 48.9836449,8.43450657 48.6414914,9.2218132 L48.0691257,8.98415106 C48.40838,8.20730647 48.6727924,7.39371249 48.8580622,6.5566021 L49.430428,6.76031251 Z M50.1420178,1.83731113 C50.0158967,1.50460362 49.8604654,1.18620933 49.6779375,0.886662583 L50.4049966,0.733879781 C50.5645375,1.08621618 50.704029,1.44906335 50.8226689,1.82033526 L52.5861742,1.82033526 L52.5861742,2.5163458 L48.2547578,2.5163458 L48.2547578,1.83731113 L50.1420178,1.83731113 Z M52.1066245,3.39909087 L52.1066245,6.01337437 L50.7298529,6.01337437 L50.7298529,9.40854773 C50.7543835,9.62877429 50.6863124,9.84929061 50.5448649,10.007816 C50.4034173,10.1663414 50.2039482,10.2456672 50.0027937,10.2233893 L49.2602652,10.2233893 L49.1210411,9.54435467 L49.7707535,9.54435467 C49.971855,9.54435467 50.0646711,9.4255236 50.0646711,9.18786146 L50.0646711,6.01337437 L48.6414914,6.01337437 L48.6414914,3.39909087 L52.1066245,3.39909087 Z M51.4723814,4.02719795 L49.2757345,4.02719795 L49.2757345,5.36829143 L51.4723814,5.36829143 L51.4723814,4.02719795 Z M52.3850727,8.49185092 L51.8281763,8.72951306 C51.6632521,8.05066514 51.4512183,7.38666674 51.1939332,6.74333664 L51.7508296,6.57357797 C52.0018852,7.19637065 52.213795,7.83729329 52.3850727,8.49185092 Z M54.1640473,0.733879781 L54.1640473,3.22933221 L56.5617956,3.22933221 L56.5617956,3.94231861 L54.1485779,3.94231861 C54.262933,6.21560708 53.6379665,8.45959641 52.3850727,10.2743169 L51.905523,9.79899267 C53.0254838,8.10324642 53.5724417,6.03247075 53.4524574,3.94231861 L52.4624194,3.94231861 L52.4624194,3.22933221 L53.4524574,3.22933221 L53.4524574,0.733879781 L54.1640473,0.733879781 Z M55.2159627,10.1894376 C54.7673517,10.1894376 54.5353115,9.91782374 54.5353115,9.39157186 L54.5353115,4.60437742 L55.185024,4.60437742 L55.185024,9.2218132 C55.185024,9.39157186 55.185024,9.49342707 55.4015948,9.49342707 L55.8347364,9.49342707 C55.9645564,9.50572582 56.083008,9.41184612 56.1131846,9.2727408 C56.2284288,8.76213363 56.2804613,8.23681563 56.2678781,7.71096105 L56.8711825,7.91467145 C56.8995047,8.58241941 56.7938896,9.24884861 56.5617956,9.86689614 C56.4198023,10.0823542 56.1841388,10.1987306 55.9430218,10.1724617 L55.2159627,10.1894376 Z M56.2988167,2.43146646 L55.7883284,2.80493553 C55.4865404,2.27129133 55.1450509,1.76595152 54.7673517,1.29408339 L55.27784,0.937590183 C55.648996,1.40925273 55.9901277,1.9083911 56.2988167,2.43146646 Z" id="Shape"></path>
                    <path d="M62.9922879,9.05689656 L62.3572534,9.05689656 L62.3572534,8.47928782 L61.1956051,8.47928782 L61.1956051,9.21734343 L60.545082,9.21734343 L60.545082,1.90096611 L63.0232651,1.90096611 L62.9922879,9.05689656 Z M62.3572534,7.8856344 L62.3572534,2.63902172 L61.1956051,2.63902172 L61.1956051,7.83750034 L62.3572534,7.8856344 Z M68.0725634,1.46775956 L68.0725634,4.67669698 L65.2381414,4.67669698 C65.1320207,4.89788505 65.0130563,5.11220713 64.8819025,5.31848446 L68.614666,5.31848446 C68.6314756,6.64141557 68.5797725,7.96432847 68.4597795,9.28152217 C68.4278177,9.58664442 68.2767093,9.86492577 68.0415861,10.0516672 C67.6323338,10.2355735 67.1843119,10.3073994 66.7405399,10.2602481 L66.4152784,10.2602481 L66.2449033,9.66659466 L66.910915,9.66659466 C67.180168,9.6977381 67.4509205,9.62332702 67.6698586,9.45801373 C67.7904792,9.27219016 67.8600772,9.05590029 67.871211,8.83227094 C67.871211,8.51137719 67.871211,7.53265128 67.9641429,5.8960932 L64.4327318,5.8960932 C64.1039499,6.25442911 63.7406588,6.57700043 63.3485267,6.85877442 L63.0077765,6.28116569 C63.6515988,5.8971654 64.1859486,5.34363248 64.556641,4.67669698 L63.813186,4.67669698 L63.813186,1.46775956 L68.0725634,1.46775956 Z M64.5101751,6.68228287 L64.5101751,8.19048345 C64.5101751,8.43115376 64.6340842,8.55951126 64.9128798,8.55951126 L66.910915,8.55951126 L66.910915,9.05689656 L64.6340842,9.05689656 C64.1229589,9.05689656 63.8751406,8.83227094 63.8751406,8.39906438 L63.8751406,6.60205943 L64.5101751,6.68228287 Z M67.391063,2.73528984 L67.391063,1.96514486 L64.5256637,1.96514486 L64.5256637,2.73528984 L67.391063,2.73528984 Z M67.391063,3.26476452 L64.5256637,3.26476452 L64.5256637,3.98677544 L67.391063,3.98677544 L67.391063,3.26476452 Z M65.0677663,8.07817064 L64.7115274,7.6289194 C65.2849051,7.26294657 65.7091351,6.69221946 65.9041531,6.0244507 L66.4462557,6.12071882 C66.385939,6.32307337 66.3135186,6.5213414 66.2294146,6.71437224 C66.6708897,6.95062275 67.0863462,7.2357438 67.4685062,7.56474066 L67.1587333,8.07817064 C66.7904254,7.73192154 66.3850849,7.43046046 65.950619,7.17966817 C65.7407315,7.54881538 65.4616118,7.87068833 65.1297209,8.1263047 L65.0677663,8.07817064 Z" id="Shape"></path>
                    <path d="M76.3541299,5.58062593 L76.3541299,4.57726445 L77.0580288,4.57726445 L77.0580288,5.58062593 L80.5775233,5.58062593 L80.5775233,6.31188939 L77.7462855,6.31188939 C78.6138,7.56123326 79.768198,8.54064639 81.0937158,9.15191257 L80.5931655,9.83215764 C79.1841519,9.0009118 78.0064354,7.77336467 77.1831664,6.27787713 L77.0580288,6.27787713 L77.0580288,10.2743169 L76.3541299,10.2743169 L76.3541299,6.31188939 L76.2602767,6.31188939 C75.4380458,7.8917243 74.1869889,9.15683581 72.6782134,9.9341944 L72.2871585,9.2369432 C73.6329459,8.63746234 74.7863782,7.62006098 75.6033044,6.31188939 L72.8346354,6.31188939 L72.8346354,5.58062593 L76.3541299,5.58062593 Z M80.4993123,1.3801126 C78.057344,1.84748148 75.5796637,2.05819553 73.1005528,2.00933929 L72.8972042,1.29508197 C75.326856,1.33460573 77.7551325,1.14684631 80.155184,0.733879781 L80.4993123,1.3801126 Z M74.9306899,4.40720318 L74.2424332,4.71331346 C73.9819445,4.03008996 73.6624567,3.375258 73.2882591,2.75760888 L73.9608736,2.53652923 C74.3340491,3.12791285 74.6585758,3.75389085 74.9306899,4.40720318 Z M77.3708728,4.15211128 L76.6982583,4.33917867 C76.5071805,3.70294051 76.2500321,3.09244967 75.9317906,2.5195231 L76.6513317,2.34946183 C76.9364639,2.92775914 77.1771306,3.53069597 77.3708728,4.15211128 Z M80.2646794,2.45149859 C79.9219561,3.28555886 79.4744986,4.06391698 78.9350925,4.76433184 L78.3876156,4.33917867 C78.9484819,3.66753306 79.4173564,2.91148713 79.7797712,2.09436993 L80.2646794,2.45149859 Z" id="Shape"></path>
                </g>
            </g>
        </g>
    </g>
</svg>